<svg width="1200" height="800" viewBox="0 0 1200 800" fill="none" xmlns="http://www.w3.org/2000/svg">
  <rect width="1200" height="800" fill="#E5E5E5"/>
  <styles>
    
    g#Vector134 {
      animation-duration: 5s;
      animation-name: arms-anim-top;
    }
    g#Vector135 {
      animation-duration: 5s;
      animation-name: arms-anim-down;
    }
    g#star_filled {
      animation-duration: 5s;
      animation-name: star-middle;
    }
    g#star_filled_2{
      animation-duration: 5s;
      animation-name: star-small;
    }
    g#star_filled_3{
      animation-duration: 5s;
      animation-name: star-small;
    }

    @keyframes star-small {
      0% {
        translater: 0 0px
      }
      50% {
        translater: 0 32px
      }
      100% {
        translater: 0 -32px
      }
    }
  
  </styles>
  <g id="Frame 1" clip-path="url(#clip0_1669_162202)">
    <rect width="1200" height="800" fill="url(#paint0_linear_1669_162202)"/>
    <g id="Vector134">
      <g filter="url(#filter0_i_1669_162202)">
        <path d="M8.588 -37L121.198 -29.6247L442.45 -12.767L681.961 89.4331C690.535 108.925 699.567 147.592 667.098 146.328H649.378C635.278 159.323 596.56 184.469 554.489 181.097C512.417 177.726 444.737 141.411 416.156 123.675L262.96 167.16C289.708 187.361 304.048 193.92 308.69 194.267C357.278 188.648 436.063 212.501 453.441 225.987C470.818 239.474 474.019 267.781 473.448 280.248C417.428 282.531 270.735 265.498 262.96 280.248C255.186 294.999 145.587 212.881 64.0355 173.195C52.7936 163.186 31.5673 139.269 36.5975 123.675C41.6278 108.082 -12.3715 103.13 -40 102.603L8.588 -37Z" fill="url(#paint1_linear_1669_162202)"/>
      </g>
      <path d="M667.098 146.328C699.567 147.592 690.535 108.925 681.961 89.4331L442.45 -12.767L121.198 -29.6247L8.588 -37L-40 102.603C-12.3715 103.13 41.6278 108.082 36.5975 123.675C31.5673 139.269 52.7936 163.186 64.0355 173.195C145.587 212.881 255.186 294.999 262.96 280.248C270.735 265.498 417.428 282.531 473.448 280.248C474.019 267.781 470.818 239.474 453.441 225.987C436.063 212.501 357.278 188.648 308.69 194.267C304.048 193.92 289.708 187.361 262.96 167.16M667.098 146.328C634.63 145.064 503.805 91.7159 442.45 65.2001C339.749 61.6881 149.665 68.4663 210.943 123.675C231.873 142.532 249.086 156.682 262.96 167.16M667.098 146.328H649.378C635.278 159.323 596.56 184.469 554.489 181.097C512.417 177.726 444.737 141.411 416.156 123.675L262.96 167.16" stroke="white"/>
    </g>
    <g id="Vector 135">
      <g filter="url(#filter1_i_1669_162202)">
        <path d="M1219.54 825.505L1107.6 831.389L788.88 852.858L538.442 768.443C527.213 747.682 512.793 705.495 544.943 702.832L562.391 700.606C574.417 684.276 608.945 651.239 650.852 649.731C692.759 648.224 764.59 680.407 795.267 696.688L939.892 628.723C910.668 609.45 895.61 603.903 890.99 604.098C843.952 616.497 762.968 599.67 743.93 586.743C724.892 573.816 717.694 542.504 716.474 528.464C771.306 518.869 918.18 519.524 923.726 502.021C929.272 484.519 1048.93 562.753 1134.9 596.972C1147.4 606.774 1171.72 630.904 1168.99 649.006C1166.27 667.109 1220.14 665.873 1247.42 662.992L1219.54 825.505Z" fill="url(#paint2_linear_1669_162202)"/>
      </g>
      <path d="M544.943 702.832C512.793 705.495 527.213 747.682 538.442 768.443L788.88 852.858L1107.6 831.389L1219.54 825.505L1247.42 662.992C1220.14 665.873 1166.27 667.109 1168.99 649.006C1171.72 630.904 1147.4 606.774 1134.9 596.972C1048.93 562.753 929.272 484.519 923.726 502.021C918.18 519.524 771.306 518.869 716.474 528.464C717.694 542.504 724.892 573.816 743.93 586.743C762.968 599.67 843.952 616.497 890.99 604.098C895.61 603.903 910.668 609.45 939.892 628.723M544.943 702.832C577.093 700.17 713.534 743.505 777.735 765.505C879.36 756.539 1065.55 725.065 997.326 670.908C974.022 652.41 955.051 638.72 939.892 628.723M544.943 702.832L562.391 700.606C574.417 684.276 608.945 651.239 650.852 649.731C692.759 648.224 764.59 680.407 795.267 696.688L939.892 628.723" stroke="black"/>
    </g>
    <g id="star_filled" filter="url(#filter2_d_1669_162202)">
      <path id="icon" d="M572.117 569.113L555.109 465.345L455.408 431.808L549.069 383.478L550.127 278.594L624.61 352.446L725.197 320.979L677.863 414.918L738.712 500.676L634.773 484.646L572.117 569.113Z" fill="url(#paint3_linear_1669_162202)"/>
    </g>
    <g id="star_filled_2" filter="url(#filter3_d_1669_162202)">
      <path id="icon_2" d="M1027.43 452.496L1061.82 406.557L1037.3 354.652L1091.74 373.216L1133.39 333.962L1132.51 391.194L1182.94 418.861L1128.08 435.772L1117.36 492.145L1084.35 445.195L1027.43 452.496Z" fill="url(#paint4_linear_1669_162202)"/>
    </g>
    <g id="star_filled_3" filter="url(#filter4_d_1669_162202)">
      <path id="icon_3" d="M63.4805 487.382L64.8305 430.014L14.7449 401.967L69.8525 385.5L81.0043 329.357L113.497 376.48L170.618 369.755L135.753 415.358L159.732 467.491L105.607 448.405L63.4805 487.382Z" fill="url(#paint5_linear_1669_162202)"/>
    </g>
  </g>
  <defs>
    <filter id="filter0_i_1669_162202" x="-40.6987" y="-37.5239" width="731.199" height="324.024" filterUnits="userSpaceOnUse" color-interpolation-filters="sRGB">
      <feFlood flood-opacity="0" result="BackgroundImageFix"/>
      <feBlend mode="normal" in="SourceGraphic" in2="BackgroundImageFix" result="shape"/>
      <feColorMatrix in="SourceAlpha" type="matrix" values="0 0 0 0 0 0 0 0 0 0 0 0 0 0 0 0 0 0 127 0" result="hardAlpha"/>
      <feOffset dy="4"/>
      <feGaussianBlur stdDeviation="12.5"/>
      <feComposite in2="hardAlpha" operator="arithmetic" k2="-1" k3="1"/>
      <feColorMatrix type="matrix" values="0 0 0 0 0 0 0 0 0 0 0 0 0 0 0 0 0 0 0.25 0"/>
      <feBlend mode="normal" in2="shape" result="effect1_innerShadow_1669_162202"/>
    </filter>
    <filter id="filter1_i_1669_162202" x="524.794" y="499.002" width="723.233" height="358.361" filterUnits="userSpaceOnUse" color-interpolation-filters="sRGB">
      <feFlood flood-opacity="0" result="BackgroundImageFix"/>
      <feBlend mode="normal" in="SourceGraphic" in2="BackgroundImageFix" result="shape"/>
      <feColorMatrix in="SourceAlpha" type="matrix" values="0 0 0 0 0 0 0 0 0 0 0 0 0 0 0 0 0 0 127 0" result="hardAlpha"/>
      <feOffset dy="4"/>
      <feGaussianBlur stdDeviation="12.5"/>
      <feComposite in2="hardAlpha" operator="arithmetic" k2="-1" k3="1"/>
      <feColorMatrix type="matrix" values="0 0 0 0 0 0 0 0 0 0 0 0 0 0 0 0 0 0 0.25 0"/>
      <feBlend mode="normal" in2="shape" result="effect1_innerShadow_1669_162202"/>
    </filter>
    <filter id="filter2_d_1669_162202" x="342.629" y="147.629" width="514.742" height="514.742" filterUnits="userSpaceOnUse" color-interpolation-filters="sRGB">
      <feFlood flood-opacity="0" result="BackgroundImageFix"/>
      <feColorMatrix in="SourceAlpha" type="matrix" values="0 0 0 0 0 0 0 0 0 0 0 0 0 0 0 0 0 0 127 0" result="hardAlpha"/>
      <feMorphology radius="4" operator="dilate" in="SourceAlpha" result="effect1_dropShadow_1669_162202"/>
      <feOffset dy="5"/>
      <feGaussianBlur stdDeviation="12.5"/>
      <feComposite in2="hardAlpha" operator="out"/>
      <feColorMatrix type="matrix" values="0 0 0 0 0 0 0 0 0 0 0 0 0 0 0 0 0 0 0.54 0"/>
      <feBlend mode="normal" in2="BackgroundImageFix" result="effect1_dropShadow_1669_162202"/>
      <feBlend mode="normal" in="SourceGraphic" in2="effect1_dropShadow_1669_162202" result="shape"/>
    </filter>
    <filter id="filter3_d_1669_162202" x="953.59" y="252.59" width="301.82" height="301.82" filterUnits="userSpaceOnUse" color-interpolation-filters="sRGB">
      <feFlood flood-opacity="0" result="BackgroundImageFix"/>
      <feColorMatrix in="SourceAlpha" type="matrix" values="0 0 0 0 0 0 0 0 0 0 0 0 0 0 0 0 0 0 127 0" result="hardAlpha"/>
      <feOffset dy="4"/>
      <feGaussianBlur stdDeviation="12.5"/>
      <feComposite in2="hardAlpha" operator="out"/>
      <feColorMatrix type="matrix" values="0 0 0 0 0 0 0 0 0 0 0 0 0 0 0 0 0 0 0.25 0"/>
      <feBlend mode="normal" in2="BackgroundImageFix" result="effect1_dropShadow_1669_162202"/>
      <feBlend mode="normal" in="SourceGraphic" in2="effect1_dropShadow_1669_162202" result="shape"/>
    </filter>
    <filter id="filter4_d_1669_162202" x="-42.3513" y="265.649" width="275.703" height="275.702" filterUnits="userSpaceOnUse" color-interpolation-filters="sRGB">
      <feFlood flood-opacity="0" result="BackgroundImageFix"/>
      <feColorMatrix in="SourceAlpha" type="matrix" values="0 0 0 0 0 0 0 0 0 0 0 0 0 0 0 0 0 0 127 0" result="hardAlpha"/>
      <feOffset dy="4"/>
      <feGaussianBlur stdDeviation="12.5"/>
      <feComposite in2="hardAlpha" operator="out"/>
      <feColorMatrix type="matrix" values="0 0 0 0 0 0 0 0 0 0 0 0 0 0 0 0 0 0 0.25 0"/>
      <feBlend mode="normal" in2="BackgroundImageFix" result="effect1_dropShadow_1669_162202"/>
      <feBlend mode="normal" in="SourceGraphic" in2="effect1_dropShadow_1669_162202" result="shape"/>
    </filter>
    <linearGradient id="paint0_linear_1669_162202" x1="0" y1="0" x2="1200" y2="800" gradientUnits="userSpaceOnUse">
      <stop stop-color="white"/>
      <stop offset="1"/>
    </linearGradient>
    <linearGradient id="paint1_linear_1669_162202" x1="572.5" y1="409.5" x2="43.4999" y2="44.5" gradientUnits="userSpaceOnUse">
      <stop offset="0.426687"/>
      <stop offset="1" stop-color="#666666"/>
    </linearGradient>
    <linearGradient id="paint2_linear_1669_162202" x1="748" y1="503.5" x2="1153" y2="875.5" gradientUnits="userSpaceOnUse">
      <stop stop-color="white"/>
      <stop offset="1"/>
    </linearGradient>
    <linearGradient id="paint3_linear_1669_162202" x1="550.127" y1="278.594" x2="655.414" y2="534.895" gradientUnits="userSpaceOnUse">
      <stop stop-color="white"/>
      <stop offset="1"/>
    </linearGradient>
    <linearGradient id="paint4_linear_1669_162202" x1="1133.39" y1="333.962" x2="1072.4" y2="472.32" gradientUnits="userSpaceOnUse">
      <stop stop-color="#FFFCFC"/>
      <stop offset="0.935"/>
    </linearGradient>
    <linearGradient id="paint5_linear_1669_162202" x1="81.0043" y1="329.357" x2="111.606" y2="477.436" gradientUnits="userSpaceOnUse">
      <stop/>
      <stop offset="1" stop-color="white"/>
    </linearGradient>
    <clipPath id="clip0_1669_162202">
    <rect width="1200" height="800" fill="white"/>
    </clipPath>
  </defs>
</svg>
